  0
SECTION
  2
HEADER
  9
$ACADVER
  1
AC1014
  9
$ACADMAINTVER
 70
     9
  9
$DWGCODEPAGE
  3
ANSI_1252
  9
$INSBASE
 10
0.0
 20
0.0
 30
0.0
  9
$EXTMIN
 10
12.876389
 20
12.876389
 30
0.0
  9
$EXTMAX
 10
698.323611
 20
1079.323611
 30
0.0
  9
$LIMMIN
 10
0.0
 20
0.0
  9
$LIMMAX
 10
12.0
 20
9.0
  9
$ORTHOMODE
 70
     0
  9
$REGENMODE
 70
     1
  9
$FILLMODE
 70
     1
  9
$QTEXTMODE
 70
     0
  9
$MIRRTEXT
 70
     1
  9
$DRAGMODE
 70
     2
  9
$LTSCALE
 40
1.0
  9
$OSMODE
 70
   511
  9
$ATTMODE
 70
     1
  9
$TEXTSIZE
 40
10.0
  9
$TRACEWID
 40
0.05
  9
$TEXTSTYLE
  7
STANDARD
  9
$CLAYER
  8
GUIDES
  9
$CELTYPE
  6
BYBLOCK
  9
$CECOLOR
 62
   256
  9
$CELTSCALE
 40
1.0
  9
$DELOBJ
 70
     1
  9
$DISPSILH
 70
     0
  9
$DIMSCALE
 40
1.0
  9
$DIMASZ
 40
0.18
  9
$DIMEXO
 40
0.0625
  9
$DIMDLI
 40
0.38
  9
$DIMRND
 40
0.0
  9
$DIMDLE
 40
0.0
  9
$DIMEXE
 40
0.18
  9
$DIMTP
 40
0.0
  9
$DIMTM
 40
0.0
  9
$DIMTXT
 40
8.0
  9
$DIMCEN
 40
0.09
  9
$DIMTSZ
 40
0.0
  9
$DIMTOL
 70
     0
  9
$DIMLIM
 70
     0
  9
$DIMTIH
 70
     1
  9
$DIMTOH
 70
     1
  9
$DIMSE1
 70
     0
  9
$DIMSE2
 70
     0
  9
$DIMTAD
 70
     0
  9
$DIMZIN
 70
     0
  9
$DIMBLK
  1

  9
$DIMASO
 70
     1
  9
$DIMSHO
 70
     1
  9
$DIMPOST
  1

  9
$DIMAPOST
  1

  9
$DIMALT
 70
     0
  9
$DIMALTD
 70
     2
  9
$DIMALTF
 40
25.4
  9
$DIMLFAC
 40
1.0
  9
$DIMTOFL
 70
     0
  9
$DIMTVP
 40
0.0
  9
$DIMTIX
 70
     0
  9
$DIMSOXD
 70
     0
  9
$DIMSAH
 70
     0
  9
$DIMBLK1
  1

  9
$DIMBLK2
  1

  9
$DIMSTYLE
  2
ISO-25
  9
$DIMCLRD
 70
     0
  9
$DIMCLRE
 70
     0
  9
$DIMCLRT
 70
     0
  9
$DIMTFAC
 40
1.0
  9
$DIMGAP
 40
0.09
  9
$DIMJUST
 70
     0
  9
$DIMSD1
 70
     0
  9
$DIMSD2
 70
     0
  9
$DIMTOLJ
 70
     1
  9
$DIMTZIN
 70
     0
  9
$DIMALTZ
 70
     0
  9
$DIMALTTZ
 70
     0
  9
$DIMFIT
 70
     5
  9
$DIMUPT
 70
     0
  9
$DIMUNIT
 70
     2
  9
$DIMDEC
 70
     4
  9
$DIMTDEC
 70
     4
  9
$DIMALTU
 70
     2
  9
$DIMALTTD
 70
     2
  9
$DIMTXSTY
  7
STANDARD
  9
$DIMAUNIT
 70
     0
  9
$LUNITS
 70
     2
  9
$LUPREC
 70
     4
  9
$SKETCHINC
 40
0.1
  9
$FILLETRAD
 40
0.5
  9
$AUNITS
 70
     0
  9
$AUPREC
 70
     0
  9
$MENU
  1
.
  9
$ELEVATION
 40
0.0
  9
$PELEVATION
 40
0.0
  9
$THICKNESS
 40
0.0
  9
$LIMCHECK
 70
     0
  9
$CHAMFERA
 40
0.0
  9
$CHAMFERB
 40
0.0
  9
$CHAMFERC
 40
0.0
  9
$CHAMFERD
 40
0.0
  9
$SKPOLY
 70
     0
  9
$TDCREATE
 40
0.0
  9
$TDUPDATE
 40
2457051.459652766
  9
$TDINDWG
 40
0.0
  9
$TDUSRTIMER
 40
2457051.412743056
  9
$USRTIMER
 70
     1
  9
$ANGBASE
 50
0.0
  9
$ANGDIR
 70
     0
  9
$PDMODE
 70
     0
  9
$PDSIZE
 40
0.0
  9
$PLINEWID
 40
0.0
  9
$COORDS
 70
     1
  9
$SPLFRAME
 70
     0
  9
$SPLINETYPE
 70
     6
  9
$SPLINESEGS
 70
     8
  9
$ATTDIA
 70
     0
  9
$ATTREQ
 70
     1
  9
$HANDLING
 70
     1
  9
$HANDSEED
  5
10876
  9
$SURFTAB1
 70
     6
  9
$SURFTAB2
 70
     6
  9
$SURFTYPE
 70
     6
  9
$SURFU
 70
     6
  9
$SURFV
 70
     6
  9
$UCSNAME
  2

  9
$UCSORG
 10
0.0
 20
0.0
 30
0.0
  9
$UCSXDIR
 10
1.0
 20
0.0
 30
0.0
  9
$UCSYDIR
 10
0.0
 20
1.0
 30
0.0
  9
$PUCSNAME
  2

  9
$PUCSORG
 10
0.0
 20
0.0
 30
0.0
  9
$PUCSXDIR
 10
1.0
 20
0.0
 30
0.0
  9
$PUCSYDIR
 10
0.0
 20
1.0
 30
0.0
  9
$USERI1
 70
     0
  9
$USERI2
 70
     0
  9
$USERI3
 70
     0
  9
$USERI4
 70
     0
  9
$USERI5
 70
     0
  9
$USERR1
 40
0.0
  9
$USERR2
 40
0.0
  9
$USERR3
 40
0.0
  9
$USERR4
 40
0.0
  9
$USERR5
 40
0.0
  9
$WORLDVIEW
 70
     1
  9
$SHADEDGE
 70
     3
  9
$SHADEDIF
 70
    70
  9
$TILEMODE
 70
     1
  9
$MAXACTVP
 70
    64
  9
$PINSBASE
 10
0.0
 20
0.0
 30
0.0
  9
$PLIMCHECK
 70
     0
  9
$PEXTMIN
 10
1.000000000000000E+20
 20
1.000000000000000E+20
 30
1.000000000000000E+20
  9
$PEXTMAX
 10
-1.000000000000000E+20
 20
-1.000000000000000E+20
 30
-1.000000000000000E+20
  9
$PLIMMIN
 10
0.0
 20
0.0
  9
$PLIMMAX
 10
0.0
 20
0.0
  9
$UNITMODE
 70
     0
  9
$VISRETAIN
 70
     1
  9
$PLINEGEN
 70
     0
  9
$PSLTSCALE
 70
     1
  9
$TREEDEPTH
 70
  3020
  9
$PICKSTYLE
 70
     0
  9
$CMLSTYLE
  2
STANDARD
  9
$CMLJUST
 70
     0
  9
$CMLSCALE
 40
1.0
  9
$PROXYGRAPHICS
 70
     1
  9
$MEASUREMENT
 70
     1
  0
ENDSEC
  0
SECTION
  2
CLASSES
  0
CLASS
  1
SCALE
  2
AcDbScale
  3
ObjectDBX Classes
 90
     1153
280
     0
281
     0
  0
CLASS
  1
VISUALSTYLE
  2
AcDbVisualStyle
  3
ObjectDBX Classes
 90
     4095
280
     0
281
     0
  0
CLASS
  1
MATERIAL
  2
AcDbMaterial
  3
ObjectDBX Classes
 90
     1153
280
     0
281
     0
  0
CLASS
  1
TABLESTYLE
  2
AcDbTableStyle
  3
ObjectDBX Classes
 90
     4095
280
     0
281
     0
  0
CLASS
  1
SUN
  2
AcDbSun
  3
SCENEOE
 90
     1153
280
     0
281
     0
  0
CLASS
  1
RASTERVARIABLES
  2
AcDbRasterVariables
  3
ISM
 90
        0
280
     0
281
     0
  0
CLASS
  1
DICTIONARYVAR
  2
AcDbDictionaryVar
  3
ObjectDBX Classes
 90
        0
280
     0
281
     0
  0
CLASS
  1
DIMASSOC
  2
AcDbDimAssoc
  3
"AcDbDimAssoc|Product Desc:     AcDim ARX App For Dimension|Company:          Autodesk, Inc.|WEB Address:      www.autodesk.com"
 90
        0
280
     0
281
     0
  0
CLASS
  1
ACDBDICTIONARYWDFLT
  2
AcDbDictionaryWithDefault
  3
ObjectDBX Classes
 90
        0
280
     0
281
     0
  0
CLASS
  1
XRECORD
  2
AcDbXrecord
  3
ObjectDBX Classes
 90
        0
280
     0
281
     0
  0
CLASS
  1
LWPOLYLINE
  2
AcDbPolyline
  3
ObjectDBX Classes
 90
        0
280
     0
281
     1
  0
CLASS
  1
HATCH
  2
AcDbHatch
  3
ObjectDBX Classes
 90
        0
280
     0
281
     1
  0
ENDSEC
  0
SECTION
  2
TABLES
  0
TABLE
  2
VPORT
  5
8
330
0
100
AcDbSymbolTable
 70
     1
  0
VPORT
  5
2E
330
8
100
AcDbSymbolTableRecord
100
AcDbViewportTableRecord
  2
*ACTIVE
 70
     0
 10
0.0
 20
0.0
 11
1.0
 21
1.0
 12
969.4192207510043
 22
546.0119040699965
 13
0.0
 23
0.0
 14
10.0
 24
10.0
 15
10.0
 25
10.0
 16
0.0
 26
0.0
 36
1.0
 17
0.0
 27
0.0
 37
0.0
 40
666.0156249999814
 41
2.301369863013699
 42
50.0
 43
0.0
 44
0.0
 50
0.0
 51
0.0
 71
    16
 72
   100
 73
     1
 74
     3
 75
     0
 76
     0
 77
     0
 78
     0
  0
ENDTAB
  0
TABLE
  2
LTYPE
  5
5
330
0
100
AcDbSymbolTable
 70
     1
  0
LTYPE
  5
14
330
5
100
AcDbSymbolTableRecord
100
AcDbLinetypeTableRecord
  2
BYBLOCK
 70
     0
  3

 72
    65
 73
     0
 40
0.0
  0
LTYPE
  5
15
330
5
100
AcDbSymbolTableRecord
100
AcDbLinetypeTableRecord
  2
BYLAYER
 70
     0
  3
Solid line
 72
    65
 73
     0
 40
0.0
  0
LTYPE
  5
16
330
5
100
AcDbSymbolTableRecord
100
AcDbLinetypeTableRecord
  2
CONTINUOUS
 70
     0
  3
Solid line
 72
    65
 73
     0
 40
0.0
  0
ENDTAB
  0
TABLE
  2
LAYER
  5
2
102
{ACAD_XDICTIONARY
360
10046
102
}
330
0
100
AcDbSymbolTable
 70
     8
  0
LAYER
  5
50
330
2
100
AcDbSymbolTableRecord
100
AcDbLayerTableRecord
  2
0
 70
     0
 62
     7
  6
CONTINUOUS
  0
LAYER
  5
10052
330
2
100
AcDbSymbolTableRecord
100
AcDbLayerTableRecord
  2
GUIDES
 70
     0
 62
     3
  6
CONTINUOUS
1001
ACAECLAYERSTANDARD
1000

1000

  0
LAYER
  5
10092
330
2
100
AcDbSymbolTableRecord
100
AcDbLayerTableRecord
  2
FIRST_CUT
 70
     0
 62
     1
  6
CONTINUOUS
1001
ACAECLAYERSTANDARD
1000

1000

  0
LAYER
  5
102FF
330
2
100
AcDbSymbolTableRecord
100
AcDbLayerTableRecord
  2
ENGRAVING
 70
     0
 62
     2
  6
CONTINUOUS
1001
ACAECLAYERSTANDARD
1000

1000

  0
LAYER
  5
10380
330
2
100
AcDbSymbolTableRecord
100
AcDbLayerTableRecord
  2
DEFPOINTS
 70
     0
 62
     7
  6
CONTINUOUS
  0
LAYER
  5
106A7
330
2
100
AcDbSymbolTableRecord
100
AcDbLayerTableRecord
  2
2NDCUT
 70
     0
 62
     2
  6
CONTINUOUS
1001
ACAECLAYERSTANDARD
1000

1000

  0
ENDTAB
  0
TABLE
  2
STYLE
  5
3
330
0
100
AcDbSymbolTable
 70
     1
  0
STYLE
  5
11
330
3
100
AcDbSymbolTableRecord
100
AcDbTextStyleTableRecord
  2
STANDARD
 70
     0
 40
0.0
 41
1.0
 50
0.0
 71
     0
 42
10.0
  3
txt
  4

  0
ENDTAB
  0
TABLE
  2
VIEW
  5
6
330
0
100
AcDbSymbolTable
 70
     0
  0
ENDTAB
  0
TABLE
  2
UCS
  5
7
330
0
100
AcDbSymbolTable
 70
     0
  0
ENDTAB
  0
TABLE
  2
APPID
  5
9
330
0
100
AcDbSymbolTable
 70
     3
  0
APPID
  5
12
330
9
100
AcDbSymbolTableRecord
100
AcDbRegAppTableRecord
  2
ACAD
 70
     0
  0
APPID
  5
10053
330
9
100
AcDbSymbolTableRecord
100
AcDbRegAppTableRecord
  2
ACAECLAYERSTANDARD
 70
     0
  0
APPID
  5
103AE
330
9
100
AcDbSymbolTableRecord
100
AcDbRegAppTableRecord
  2
ACAD_DSTYLE_DIMRADIAL_EXTE
 70
     0
  0
ENDTAB
  0
TABLE
  2
DIMSTYLE
  5
A
330
0
100
AcDbSymbolTable
 70
     1
  0
DIMSTYLE
105
27
102
{ACAD_REACTORS
330
104D7
330
104E3
330
104EF
330
1064B
330
106E3
330
106F3
330
10850
330
1085D
330
10869
102
}
330
A
100
AcDbSymbolTableRecord
100
AcDbDimStyleTableRecord
  2
ISO-25
 70
     0
  3

  4

  5

  6

  7

 40
1.0
 41
2.5
 42
0.625
 43
3.75
 44
1.25
 45
0.0
 46
0.0
 47
0.0
 48
0.0
140
2.5
141
2.5
142
0.0
143
0.03937007874016
144
1.0
145
0.0
146
1.0
147
0.625
 71
     0
 72
     0
 73
     0
 74
     0
 75
     0
 76
     0
 77
     1
 78
     8
170
     0
171
     3
172
     1
173
     0
174
     0
175
     0
176
     0
177
     0
178
     0
270
     2
271
     2
272
     2
273
     2
274
     3
340
11
275
     0
280
     0
281
     0
282
     0
283
     0
284
     8
285
     0
286
     0
287
     3
288
     0
  0
ENDTAB
  0
TABLE
  2
BLOCK_RECORD
  5
1
330
0
100
AcDbSymbolTable
 70
    39
  0
BLOCK_RECORD
  5
1F
330
1
100
AcDbSymbolTableRecord
100
AcDbBlockTableRecord
  2
*MODEL_SPACE
  0
BLOCK_RECORD
  5
1B
330
1
100
AcDbSymbolTableRecord
100
AcDbBlockTableRecord
  2
*PAPER_SPACE
  0
BLOCK_RECORD
  5
100A3
330
1
100
AcDbSymbolTableRecord
100
AcDbBlockTableRecord
  2
RIGHT_WING
  0
BLOCK_RECORD
  5
1010F
330
1
100
AcDbSymbolTableRecord
100
AcDbBlockTableRecord
  2
LEFT_WING
  0
BLOCK_RECORD
  5
104DA
330
1
100
AcDbSymbolTableRecord
100
AcDbBlockTableRecord
  2
*D13
  0
BLOCK_RECORD
  5
104E6
330
1
100
AcDbSymbolTableRecord
100
AcDbBlockTableRecord
  2
*D14
  0
BLOCK_RECORD
  5
104F2
330
1
100
AcDbSymbolTableRecord
100
AcDbBlockTableRecord
  2
*D15
  0
BLOCK_RECORD
  5
1065A
330
1
100
AcDbSymbolTableRecord
100
AcDbBlockTableRecord
  2
*D28
  0
BLOCK_RECORD
  5
106E6
330
1
100
AcDbSymbolTableRecord
100
AcDbBlockTableRecord
  2
*D33
  0
BLOCK_RECORD
  5
106F6
330
1
100
AcDbSymbolTableRecord
100
AcDbBlockTableRecord
  2
*D34
  0
BLOCK_RECORD
  5
10853
330
1
100
AcDbSymbolTableRecord
100
AcDbBlockTableRecord
  2
*D36
  0
BLOCK_RECORD
  5
10860
330
1
100
AcDbSymbolTableRecord
100
AcDbBlockTableRecord
  2
*D37
  0
BLOCK_RECORD
  5
1086C
330
1
100
AcDbSymbolTableRecord
100
AcDbBlockTableRecord
  2
*D38
  0
ENDTAB
  0
ENDSEC
  0
SECTION
  2
BLOCKS
  0
BLOCK
  5
20
330
1F
100
AcDbEntity
  8
0
100
AcDbBlockBegin
  2
*MODEL_SPACE
 70
     0
 10
0.0
 20
0.0
 30
0.0
  3
*MODEL_SPACE
  1

  0
ENDBLK
  5
21
330
1F
100
AcDbEntity
  8
0
100
AcDbBlockEnd
  0
BLOCK
  5
1C
330
1B
100
AcDbEntity
 67
     1
  8
0
100
AcDbBlockBegin
  2
*PAPER_SPACE
 70
     0
 10
0.0
 20
0.0
 30
0.0
  3
*PAPER_SPACE
  1

  0
ENDBLK
  5
1D
330
1B
100
AcDbEntity
 67
     1
  8
0
100
AcDbBlockEnd
  0
BLOCK
  5
100AE
330
100A3
100
AcDbEntity
  8
0
100
AcDbBlockBegin
  2
RIGHT_WING
 70
     0
 10
0.0
 20
0.0
 30
0.0
  3
RIGHT_WING
  1
RIGHT_WING
  0
LWPOLYLINE
  5
10342
330
100A3
100
AcDbEntity
  8
GUIDES
100
AcDbPolyline
 90
        2
 70
     0
 43
0.0
 10
461.6470386293184
 20
511.0271012531076
 10
261.3808141970037
 20
638.4692440736716
  0
LWPOLYLINE
  5
10343
330
100A3
100
AcDbEntity
  8
FIRST_CUT
100
AcDbPolyline
 90
        6
 70
     0
 43
0.0
 10
151.4785397365241
 20
256.7907853692354
 10
146.4165328453645
 20
260.0120624817915
 10
136.9097128928901
 20
245.072773985046
 10
141.9717197840496
 20
241.8514968724899
 10
151.4785397365241
 20
256.7907853692354
 10
151.4785397365241
 20
256.7907853692354
  0
LWPOLYLINE
  5
10344
330
100A3
100
AcDbEntity
  8
FIRST_CUT
100
AcDbPolyline
 90
        6
 70
     0
 43
0.0
 10
179.5069971524462
 20
180.9519521393548
 10
184.5690040436058
 20
177.7306750267987
 10
220.8590992569705
 20
237.0177149094001
 10
215.7970932094724
 20
240.2389914850807
 10
179.5069971524462
 20
180.9519521393548
 10
179.5069971524462
 20
180.9519521393548
  0
LWPOLYLINE
  5
10345
330
100A3
100
AcDbEntity
  8
FIRST_CUT
100
AcDbPolyline
 90
        6
 70
     0
 43
0.0
 10
138.041040245775
 20
205.0830370822697
 10
143.2647646959966
 20
202.131002798959
 10
171.4906296197718
 20
252.0784609788341
 10
166.4217772593007
 20
255.3040942991338
 10
138.041040245775
 20
205.0830370822697
 10
138.041040245775
 20
205.0830370822697
  0
LWPOLYLINE
  5
10346
330
100A3
100
AcDbEntity
  8
FIRST_CUT
100
AcDbPolyline
 90
        6
 70
     0
 43
0.0
 10
394.0096003212049
 20
587.2109497716997
 10
392.7440988093304
 20
588.0162689156199
 10
381.4393263204158
 20
570.25162643304
 10
382.7048278322904
 20
569.4463072891199
 10
394.0096003212049
 20
587.2109497716997
 10
394.0096003212049
 20
587.2109497716997
  0
LWPOLYLINE
  5
10347
330
100A3
100
AcDbEntity
  8
0
100
AcDbPolyline
 90
       30
 70
     0
 43
0.0
 10
297.4679158664121
 20
487.1830477419069
 10
302.5299227575717
 20
483.9617706293508
 10
331.0547648228518
 20
534.4381903731817
 10
336.11677087035
 20
531.216913797501
 10
287.8521655638946
 20
445.8098419821426
 10
282.3553836306627
 20
448.2611622521263
 10
246.1971356045113
 20
384.276760238912
 10
240.7913997016229
 20
392.0208012062105
 10
277.6177612835867
 20
456.9992431490377
 10
76.01379291298889
 20
669.0441134535408
 10
62.37715541128262
 20
647.6151116651453
 10
15.63189862085062
 20
574.1582795658949
 10
114.2684577475972
 20
228.2872098625591
 10
109.1909207357714
 20
169.4760722924131
 10
37.13376446077802
 20
261.2975319271508
 10
14.31323063577008
 20
225.4366930592811
 10
54.18667700898783
 20
77.45290339659289
 10
42.53473866153303
 20
-17.63940084069668
 10
21.74590161118419
 20
-79.64091642141057
 10
103.2525434476073
 20
46.22917020838054
 10
108.1303199796908
 20
43.12513059705464
 10
141.5325064689798
 20
94.05499561168125
 10
136.5648470856548
 20
97.21623340106993
 10
179.664359654212
 20
161.0356429147199
 10
184.0695077405916
 20
158.2323668597511
 10
263.0156006076073
 20
272.2494565741015
 10
292.9512939439969
 20
251.5218491765829
 10
298.3250756311619
 20
259.9663632564136
 10
300.8560794985724
 20
258.3557244316978
 10
306.5537318632784
 20
267.3091781476643
  0
LWPOLYLINE
  5
10348
330
100A3
100
AcDbEntity
  8
ENGRAVING
100
AcDbPolyline
 90
        4
 70
     0
 43
0.0
 10
308.1643706879942
 20
269.8401820150748
 10
104.5888536982367
 20
399.3882382812843
 10
102.9782148735209
 20
396.8572344138737
 10
306.5537318632784
 20
267.3091781476643
  0
LWPOLYLINE
  5
10349
330
100A3
100
AcDbEntity
  8
0
100
AcDbPolyline
 90
        2
 70
     0
 43
0.0
 10
308.1643706879942
 20
269.8401820150748
 10
308.1643706879942
 20
269.8401820150748
  0
LWPOLYLINE
  5
1034A
330
100A3
100
AcDbEntity
  8
0
100
AcDbPolyline
 90
       19
 70
     0
 43
0.0
 10
308.1643706879942
 20
269.8401820150748
 10
314.8645048892489
 20
280.3689643313322
 10
301.2044088430008
 20
289.0617527243992
 10
309.5947291000231
 20
302.2465416997199
 10
251.3861199920805
 20
339.2883838593197
 10
273.5456559323532
 20
374.1105117654624
 10
355.6948707001914
 20
344.5309677485275
 10
461.6469983636565
 20
511.0271683625441
 10
494.5359163897161
 20
562.7097538320662
 10
474.7468280194817
 20
575.30281006767
 10
481.9555229761677
 20
603.197417904186
 10
410.9627282700777
 20
648.3746508989706
 10
380.2516132354807
 20
623.3741485568542
 10
380.6937763745941
 20
662.0201089582275
 10
302.2281313147366
 20
726.9100483567038
 10
247.353976891412
 20
698.163150829724
 10
261.3807739313418
 20
638.4693111831081
 10
297.4679158664121
 20
487.1830477419069
 10
296.8360581261596
 20
487.5851390311585
  0
LINE
  5
1034B
330
100A3
100
AcDbEntity
  8
0
  6
BYBLOCK
100
AcDbLine
 10
306.5537318632784
 20
267.3091781476643
 30
0.0
 11
308.1643706879942
 21
269.8401820150748
 31
0.0
  0
ENDBLK
  5
100AF
330
100A3
100
AcDbEntity
  8
0
100
AcDbBlockEnd
  0
BLOCK
  5
10110
330
1010F
100
AcDbEntity
  8
0
100
AcDbBlockBegin
  2
LEFT_WING
 70
     0
 10
0.0
 20
0.0
 30
0.0
  3
LEFT_WING
  1
LEFT_WING
  0
LWPOLYLINE
  5
1034D
330
1010F
100
AcDbEntity
  8
GUIDES
100
AcDbPolyline
 90
        2
 70
     0
 43
0.0
 10
-448.6497256856121
 20
536.9267082518173
 10
-241.3545724071693
 20
652.5847379874916
  0
LWPOLYLINE
  5
1034E
330
1010F
100
AcDbEntity
  8
FIRST_CUT
100
AcDbPolyline
 90
        2
 70
     0
 43
0.0
 10
-376.7235186396789
 20
609.0747270489505
 10
-375.4135997778803
 20
609.8055817374135
  0
LWPOLYLINE
  5
1034F
330
1010F
100
AcDbEntity
  8
FIRST_CUT
100
AcDbPolyline
 90
        2
 70
     0
 43
0.0
 10
-365.1541386315089
 20
591.4174371723386
 10
-366.4640574933075
 20
590.6865824838758
  0
LWPOLYLINE
  5
10350
330
1010F
100
AcDbEntity
  8
FIRST_CUT
100
AcDbPolyline
 90
        6
 70
     0
 43
0.0
 10
-148.4493467117761
 20
268.1167510417603
 10
-153.6890195391535
 20
265.1933337496058
 10
-145.0612607741183
 20
249.7297072315436
 10
-139.8215879467409
 20
252.653124523698
 10
-148.4493467117761
 20
268.1167510417603
 10
-148.4493467117761
 20
268.1167510417603
  0
LWPOLYLINE
  5
10351
330
1010F
100
AcDbEntity
  8
FIRST_CUT
100
AcDbPolyline
 90
        6
 70
     0
 43
0.0
 10
-218.8566420032886
 20
252.3857694068005
 10
-224.0960056922876
 20
249.4625245949727
 10
-191.2922265630477
 20
188.1772399968407
 10
-186.0525537356702
 20
191.1006572889952
 10
-218.8566420032886
 20
252.3857694068005
 10
-218.8566420032886
 20
252.3857694068005
  0
LWPOLYLINE
  5
10352
330
1010F
100
AcDbEntity
  8
FIRST_CUT
100
AcDbPolyline
 90
        6
 70
     0
 43
0.0
 10
-168.6928850701262
 20
264.5727050439956
 10
-173.9396427553085
 20
261.6453348340727
 10
-148.6471617531468
 20
210.1502810913123
 10
-143.2617692682623
 20
212.7958702071185
 10
-168.6928850701262
 20
264.5727050439956
 10
-168.6928850701262
 20
264.5727050439956
  0
LWPOLYLINE
  5
10353
330
1010F
100
AcDbEntity
  8
FIRST_CUT
100
AcDbPolyline
 90
        2
 70
     0
 43
0.0
 10
-366.4640574933075
 20
590.6865824838758
 10
-376.7235186396789
 20
609.0747270489505
  0
LWPOLYLINE
  5
10354
330
1010F
100
AcDbEntity
  8
FIRST_CUT
100
AcDbPolyline
 90
        2
 70
     0
 43
0.0
 10
-375.4135997778803
 20
609.8055817374135
 10
-365.1541386315089
 20
591.4174371723386
  0
LWPOLYLINE
  5
10355
330
1010F
100
AcDbEntity
  8
0
100
AcDbPolyline
 90
       20
 70
     0
 43
0.0
 10
-285.4687786730558
 20
504.0010586659043
 10
-286.1228133086369
 20
503.6361473009551
 10
-241.3547705650441
 20
652.5845862032479
 10
-223.9016972714994
 20
711.3678010654971
 10
-277.0235513666152
 20
743.2378700136936
 10
-359.1077031506974
 20
682.9898406068322
 10
-360.8987286740755
 20
644.3827592997918
 10
-390.1143385726972
 20
671.1157849173302
 10
-463.5988330349063
 20
630.115926931239
 10
-458.0139431114566
 20
601.8521951601433
 10
-478.4975865400464
 20
590.423573683516
 10
-448.649615578381
 20
536.9267284606676
 10
-352.4943251868724
 20
364.5865484853131
 10
-268.7732699777662
 20
389.3701678254839
 10
-248.6627460177496
 20
353.3258554994926
 10
-308.9146647646527
 20
319.7089662483468
 10
-301.3003390076199
 20
306.0617268087386
 10
-315.4395678098954
 20
298.1729010480298
 10
-309.3587982560183
 20
287.2742711854718
 10
-309.3587812028788
 20
287.2742406209428
  0
LWPOLYLINE
  5
10356
330
1010F
100
AcDbEntity
  8
ENGRAVING
100
AcDbPolyline
 90
        2
 70
     0
 43
0.0
 10
-98.63824806864471
 20
404.8434230244505
 10
-309.3588432052086
 20
287.2742060274309
  0
LWPOLYLINE
  5
10357
330
1010F
100
AcDbEntity
  8
ENGRAVING
100
AcDbPolyline
 90
        4
 70
     0
 43
0.0
 10
-307.8971348027476
 20
284.6543700503784
 10
-97.17653966618374
 20
402.2235870473982
 10
-98.63824806864471
 20
404.8434230244505
 10
-98.63824806864471
 20
404.8434230244505
  0
LWPOLYLINE
  5
10358
330
1010F
100
AcDbEntity
  8
0
100
AcDbPolyline
 90
       30
 70
     0
 43
0.0
 10
-307.8970728004178
 20
284.6544046438902
 10
-302.7262787542138
 20
275.3867338489719
 10
-300.1064427771612
 20
276.8484422514329
 10
-295.2295547203103
 20
268.1075423798269
 10
-264.1465570985467
 20
287.0706932679556
 10
-191.9198516302071
 20
168.6828174144092
 10
-187.3604002535223
 20
171.2267126988042
 10
-148.01970406307
 20
105.0240118724802
 10
-153.16202537273
 20
102.1549107790063
 10
-122.7584967494818
 20
49.3804883500494
 10
-117.7095203844332
 20
52.19750866783318
 10
-43.61201457544601
 20
-78.17185302650671
 10
-60.78294116449715
 20
-15.07272083207215
 10
-66.92185125668757
 20
80.53392489987266
 10
-18.56433616077587
 20
225.9668093172074
 10
-39.27456642078025
 20
263.0859818121131
 10
-116.5170142829337
 20
175.5811478278673
 10
-118.1877044193463
 20
234.5875826135094
 10
0.2678908576266963
 20
574.181530961336
 10
-42.15517343948116
 20
650.2168536804613
 10
-54.53088049179902
 20
672.3979689579944
 10
-268.0499863662142
 20
472.3561517609604
 10
-235.0390639697624
 20
405.3583313222401
 10
-240.8830414013762
 20
397.9392589151511
 10
-273.2839204098543
 20
463.9059599148772
 10
-278.9134631591678
 20
461.7761607360301
 10
-322.1623835773307
 20
549.8294102204728
 10
-316.9227107499531
 20
552.7528275126275
 10
-291.3621778709081
 20
500.7129020018946
 10
-286.1228133086369
 20
503.6361473009551
  0
LINE
  5
10359
330
1010F
100
AcDbEntity
  8
0
  6
BYBLOCK
100
AcDbLine
 10
-307.8971348027476
 20
284.6543700503784
 30
0.0
 11
-309.3588432052086
 21
287.2742060274309
 31
0.0
  0
ENDBLK
  5
1011E
330
1010F
100
AcDbEntity
  8
0
100
AcDbBlockEnd
  0
BLOCK
  5
104DB
330
104DA
100
AcDbEntity
  8
0
100
AcDbBlockBegin
  2
*D13
 70
     1
 10
0.0
 20
0.0
 30
0.0
  3
*D13
  1
*D13
  0
LINE
  5
104DD
330
104DA
100
AcDbEntity
  8
GUIDES
  6
BYBLOCK
 62
     0
100
AcDbLine
 10
646.2548592081934
 20
13.40550305680753
 30
0.0
 11
693.7918252201124
 21
-22.90798290063881
 31
0.0
  0
MTEXT
  5
104DE
330
104DA
100
AcDbEntity
  8
GUIDES
  6
BYBLOCK
 62
     0
100
AcDbMText
 10
667.8383587784278
 20
40.694010403042
 30
0.0
 40
8.0
 41
0.0
 71
     5
 72
     1
  1
\A1;%%c60.0000
  0
SOLID
  5
104DF
330
104DA
100
AcDbEntity
  8
GUIDES
 62
     0
100
AcDbTrace
 10
693.6305738249123
 20
-22.8225546409935
 30
0.0
 11
693.6669965791325
 21
-22.77487463496349
 31
0.0
 12
693.7918252201124
 22
-22.90798290063881
 32
0.0
 13
693.7918252201124
 23
-22.90798290063881
 33
0.0
  0
SOLID
  5
104E0
330
104DA
100
AcDbEntity
  8
GUIDES
 62
     0
100
AcDbTrace
 10
646.2730705853035
 20
13.42934305982254
 30
0.0
 11
646.2366478310832
 21
13.38166305379253
 31
0.0
 12
646.1118191901033
 22
13.51477131946785
 32
0.0
 13
646.1118191901033
 23
13.51477131946785
 33
0.0
  0
POINT
  5
104E1
330
104DA
100
AcDbEntity
  8
DEFPOINTS
 62
     0
100
AcDbPoint
 10
646.1118191901033
 20
13.51477131946785
 30
0.0
  0
POINT
  5
104E2
330
104DA
100
AcDbEntity
  8
DEFPOINTS
 62
     0
100
AcDbPoint
 10
693.7918252201124
 20
-22.90798290063881
 30
0.0
  0
ENDBLK
  5
104DC
330
104DA
100
AcDbEntity
  8
0
100
AcDbBlockEnd
  0
BLOCK
  5
104E7
330
104E6
100
AcDbEntity
  8
0
100
AcDbBlockBegin
  2
*D14
 70
     1
 10
0.0
 20
0.0
 30
0.0
  3
*D14
  1
*D14
  0
LINE
  5
104E9
330
104E6
100
AcDbEntity
  8
GUIDES
  6
BYBLOCK
 62
     0
100
AcDbLine
 10
790.3634668628764
 20
10.44459042149875
 30
0.0
 11
849.7024537192345
 21
-18.03622836695888
 31
0.0
  0
MTEXT
  5
104EA
330
104E6
100
AcDbEntity
  8
GUIDES
  6
BYBLOCK
 62
     0
100
AcDbMText
 10
817.4637868606185
 20
43.12694419299635
 30
0.0
 40
8.0
 41
0.0
 71
     5
 72
     1
  1
\A1;%%c66.0000
  0
SOLID
  5
104EB
330
104E6
100
AcDbEntity
  8
GUIDES
 62
     0
100
AcDbTrace
 10
849.5271963172626
 20
-17.9853870151474
 30
0.0
 11
849.5531587774161
 21
-17.93129495784899
 31
0.0
 12
849.7024537192345
 22
-18.03622836695888
 32
0.0
 13
849.7024537192345
 23
-18.03622836695888
 33
0.0
  0
SOLID
  5
104EC
330
104E6
100
AcDbEntity
  8
GUIDES
 62
     0
100
AcDbTrace
 10
790.3764480929532
 20
10.47163645014796
 30
0.0
 11
790.3504856327996
 21
10.41754439284955
 31
0.0
 12
790.2011906909812
 22
10.52247780195944
 32
0.0
 13
790.2011906909812
 23
10.52247780195944
 33
0.0
  0
POINT
  5
104ED
330
104E6
100
AcDbEntity
  8
DEFPOINTS
 62
     0
100
AcDbPoint
 10
790.2011906909812
 20
10.52247780195944
 30
0.0
  0
POINT
  5
104EE
330
104E6
100
AcDbEntity
  8
DEFPOINTS
 62
     0
100
AcDbPoint
 10
849.7024537192345
 20
-18.03622836695888
 30
0.0
  0
ENDBLK
  5
104E8
330
104E6
100
AcDbEntity
  8
0
100
AcDbBlockEnd
  0
BLOCK
  5
104F3
330
104F2
100
AcDbEntity
  8
0
100
AcDbBlockBegin
  2
*D15
 70
     1
 10
0.0
 20
0.0
 30
0.0
  3
*D15
  1
*D15
  0
LINE
  5
104F5
330
104F2
100
AcDbEntity
  8
GUIDES
  6
BYBLOCK
 62
     0
100
AcDbLine
 10
943.3808175566713
 20
3.545609443971802
 30
0.0
 11
996.6947456471
 21
-12.99214952054965
 31
0.0
  0
MTEXT
  5
104F6
330
104F2
100
AcDbEntity
  8
GUIDES
  6
BYBLOCK
 62
     0
100
AcDbMText
 10
970.7386156277405
 20
39.47754350806491
 30
0.0
 40
8.0
 41
0.0
 71
     5
 72
     1
  1
\A1;%%c56.0000
  0
SOLID
  5
104F7
330
104F2
100
AcDbEntity
  8
GUIDES
 62
     0
100
AcDbTrace
 10
996.5139387709766
 20
-12.96747415740201
 30
0.0
 11
996.5317149361123
 21
-12.91016789288346
 31
0.0
 12
996.6947456471
 22
-12.99214952054965
 32
0.0
 13
996.6947456471
 23
-12.99214952054965
 33
0.0
  0
SOLID
  5
104F8
330
104F2
100
AcDbEntity
  8
GUIDES
 62
     0
100
AcDbTrace
 10
943.3897056392392
 20
3.574262576231079
 30
0.0
 11
943.3719294741035
 21
3.516956311712525
 31
0.0
 12
943.2088987631157
 22
3.598937939378715
 32
0.0
 13
943.2088987631157
 23
3.598937939378715
 33
0.0
  0
POINT
  5
104F9
330
104F2
100
AcDbEntity
  8
DEFPOINTS
 62
     0
100
AcDbPoint
 10
943.2088987631157
 20
3.598937939378715
 30
0.0
  0
POINT
  5
104FA
330
104F2
100
AcDbEntity
  8
DEFPOINTS
 62
     0
100
AcDbPoint
 10
996.6947456471
 20
-12.99214952054965
 30
0.0
  0
ENDBLK
  5
104F4
330
104F2
100
AcDbEntity
  8
0
100
AcDbBlockEnd
  0
BLOCK
  5
1065B
330
1065A
100
AcDbEntity
  8
0
100
AcDbBlockBegin
  2
*D28
 70
     1
 10
0.0
 20
0.0
 30
0.0
  3
*D28
  1
*D28
  0
LINE
  5
1065D
330
1065A
100
AcDbEntity
  8
GUIDES
  6
BYBLOCK
 62
     0
100
AcDbLine
 10
1162.306505806604
 20
-66.79243254061379
 30
0.0
 11
1245.993331967168
 21
-99.96255641489165
 31
0.0
  0
LINE
  5
1065E
330
1065A
100
AcDbEntity
  8
GUIDES
  6
BYBLOCK
 62
     0
100
AcDbLine
 10
1150.427939995675
 20
-62.08424228565868
 30
0.0
 11
1143.73305140246
 21
-59.43065516627928
 31
0.0
  0
MTEXT
  5
1065F
330
1065A
100
AcDbEntity
  8
GUIDES
  6
BYBLOCK
 62
     0
100
AcDbMText
 10
1176.517939995675
 20
-62.70243254061376
 30
0.0
 40
8.0
 41
0.0
 71
     5
 72
     1
  1
\A1;%%c110.0000
  0
SOLID
  5
10660
330
1065A
100
AcDbEntity
  8
GUIDES
 62
     0
100
AcDbTrace
 10
1245.814942807721
 20
-99.92412065300248
 30
0.0
 11
1245.837051117494
 21
-99.868342318149
 31
0.0
 12
1245.993331967168
 22
-99.96255641489165
 32
0.0
 13
1245.993331967168
 23
-99.96255641489165
 33
0.0
  0
SOLID
  5
10661
330
1065A
100
AcDbEntity
  8
GUIDES
 62
     0
100
AcDbTrace
 10
1143.911440561907
 20
-59.46909092816846
 30
0.0
 11
1143.889332252135
 21
-59.52486926302193
 31
0.0
 12
1143.73305140246
 22
-59.43065516627928
 32
0.0
 13
1143.73305140246
 23
-59.43065516627928
 33
0.0
  0
POINT
  5
10662
330
1065A
100
AcDbEntity
  8
DEFPOINTS
 62
     0
100
AcDbPoint
 10
1143.73305140246
 20
-59.43065516627928
 30
0.0
  0
POINT
  5
10663
330
1065A
100
AcDbEntity
  8
DEFPOINTS
 62
     0
100
AcDbPoint
 10
1245.993331967168
 20
-99.96255641489165
 30
0.0
  0
ENDBLK
  5
1065C
330
1065A
100
AcDbEntity
  8
0
100
AcDbBlockEnd
  0
BLOCK
  5
106E7
330
106E6
100
AcDbEntity
  8
0
100
AcDbBlockBegin
  2
*D33
 70
     1
 10
0.0
 20
0.0
 30
0.0
  3
*D33
  1
*D33
  0
LINE
  5
106E9
330
106E6
100
AcDbEntity
  8
GUIDES
  6
BYBLOCK
 62
     0
100
AcDbLine
 10
594.9518222051079
 20
-79.75910579058547
 30
0.0
 11
594.9518222051079
 21
-434.909340970413
 31
0.0
  0
LINE
  5
106EA
330
106E6
100
AcDbEntity
  8
GUIDES
  6
BYBLOCK
 62
     0
100
AcDbLine
 10
1644.863191684814
 20
-79.75910579058547
 30
0.0
 11
1644.863191684814
 21
-434.909340970413
 31
0.0
  0
LINE
  5
106EB
330
106E6
100
AcDbEntity
  8
GUIDES
  6
BYBLOCK
 62
     0
100
AcDbLine
 10
595.1318222051078
 20
-434.729340970413
 30
0.0
 11
1092.484173611628
 21
-434.729340970413
 31
0.0
  0
LINE
  5
106EC
330
106E6
100
AcDbEntity
  8
GUIDES
  6
BYBLOCK
 62
     0
100
AcDbLine
 10
1644.683191684814
 20
-434.729340970413
 30
0.0
 11
1147.330840278294
 21
-434.729340970413
 31
0.0
  0
SOLID
  5
106ED
330
106E6
100
AcDbEntity
  8
GUIDES
 62
     0
100
AcDbTrace
 10
595.1318222051078
 20
-434.6993409704131
 30
0.0
 11
595.1318222051078
 21
-434.759340970413
 31
0.0
 12
594.9518222051079
 22
-434.729340970413
 32
0.0
 13
594.9518222051079
 23
-434.729340970413
 33
0.0
  0
SOLID
  5
106EE
330
106E6
100
AcDbEntity
  8
GUIDES
 62
     0
100
AcDbTrace
 10
1644.683191684814
 20
-434.759340970413
 30
0.0
 11
1644.683191684814
 21
-434.6993409704131
 31
0.0
 12
1644.863191684814
 22
-434.729340970413
 32
0.0
 13
1644.863191684814
 23
-434.729340970413
 33
0.0
  0
MTEXT
  5
106EF
330
106E6
100
AcDbEntity
  8
GUIDES
  6
BYBLOCK
 62
     0
100
AcDbMText
 10
1119.907506944961
 20
-434.729340970413
 30
0.0
 40
8.0
 41
0.0
 71
     5
 72
     1
  1
\A1;1049.9114
  0
POINT
  5
106F0
330
106E6
100
AcDbEntity
  8
DEFPOINTS
 62
     0
100
AcDbPoint
 10
594.9518222051079
 20
-79.69660579058547
 30
0.0
  0
POINT
  5
106F1
330
106E6
100
AcDbEntity
  8
DEFPOINTS
 62
     0
100
AcDbPoint
 10
1644.863191684814
 20
-79.69660579058547
 30
0.0
  0
POINT
  5
106F2
330
106E6
100
AcDbEntity
  8
DEFPOINTS
 62
     0
100
AcDbPoint
 10
1644.863191684814
 20
-434.729340970413
 30
0.0
  0
ENDBLK
  5
106E8
330
106E6
100
AcDbEntity
  8
0
100
AcDbBlockEnd
  0
BLOCK
  5
106F7
330
106F6
100
AcDbEntity
  8
0
100
AcDbBlockBegin
  2
*D34
 70
     1
 10
0.0
 20
0.0
 30
0.0
  3
*D34
  1
*D34
  0
LINE
  5
106F9
330
106F6
100
AcDbEntity
  8
GUIDES
  6
BYBLOCK
 62
     0
100
AcDbLine
 10
1344.925691684814
 20
-184.6966057905855
 30
0.0
 11
1774.792612341164
 21
-184.6966057905854
 31
0.0
  0
LINE
  5
106FA
330
106F6
100
AcDbEntity
  8
GUIDES
  6
BYBLOCK
 62
     0
100
AcDbLine
 10
1344.925691684814
 20
470.3033942094146
 30
0.0
 11
1774.792612341164
 21
470.3033942094146
 31
0.0
  0
LINE
  5
106FB
330
106F6
100
AcDbEntity
  8
GUIDES
  6
BYBLOCK
 62
     0
100
AcDbLine
 10
1774.612612341164
 20
-184.5166057905854
 30
0.0
 11
1774.612612341164
 21
138.7133942094145
 31
0.0
  0
LINE
  5
106FC
330
106F6
100
AcDbEntity
  8
GUIDES
  6
BYBLOCK
 62
     0
100
AcDbLine
 10
1774.612612341164
 20
470.1233942094146
 30
0.0
 11
1774.612612341164
 21
146.8933942094146
 31
0.0
  0
SOLID
  5
106FD
330
106F6
100
AcDbEntity
  8
GUIDES
 62
     0
100
AcDbTrace
 10
1774.582612341164
 20
-184.5166057905854
 30
0.0
 11
1774.642612341164
 21
-184.5166057905854
 31
0.0
 12
1774.612612341164
 22
-184.6966057905854
 32
0.0
 13
1774.612612341164
 23
-184.6966057905854
 33
0.0
  0
SOLID
  5
106FE
330
106F6
100
AcDbEntity
  8
GUIDES
 62
     0
100
AcDbTrace
 10
1774.642612341164
 20
470.1233942094146
 30
0.0
 11
1774.582612341164
 21
470.1233942094146
 31
0.0
 12
1774.612612341164
 22
470.3033942094146
 32
0.0
 13
1774.612612341164
 23
470.3033942094146
 33
0.0
  0
MTEXT
  5
106FF
330
106F6
100
AcDbEntity
  8
GUIDES
  6
BYBLOCK
 62
     0
100
AcDbMText
 10
1774.612612341164
 20
142.8033942094146
 30
0.0
 40
8.0
 41
0.0
 71
     5
 72
     1
  1
\A1;655.0000
  0
POINT
  5
10700
330
106F6
100
AcDbEntity
  8
DEFPOINTS
 62
     0
100
AcDbPoint
 10
1344.863191684814
 20
-184.6966057905855
 30
0.0
  0
POINT
  5
10701
330
106F6
100
AcDbEntity
  8
DEFPOINTS
 62
     0
100
AcDbPoint
 10
1344.863191684814
 20
470.3033942094146
 30
0.0
  0
POINT
  5
10702
330
106F6
100
AcDbEntity
  8
DEFPOINTS
 62
     0
100
AcDbPoint
 10
1774.612612341164
 20
470.3033942094146
 30
0.0
  0
ENDBLK
  5
106F8
330
106F6
100
AcDbEntity
  8
0
100
AcDbBlockEnd
  0
BLOCK
  5
10854
330
10853
100
AcDbEntity
  8
0
100
AcDbBlockBegin
  2
*D36
 70
     1
 10
0.0
 20
0.0
 30
0.0
  3
*D36
  1
*D36
  0
LINE
  5
10856
330
10853
100
AcDbEntity
  8
GUIDES
  6
BYBLOCK
 62
     0
100
AcDbLine
 10
666.2404675275036
 20
661.4839178798146
 30
0.0
 11
673.7067828776187
 21
691.385866563682
 31
0.0
  0
MTEXT
  5
10857
330
10853
100
AcDbEntity
  8
GUIDES
  6
BYBLOCK
 62
     0
100
AcDbMText
 10
668.0848076614188
 20
700.4185859594849
 30
0.0
 40
8.0
 41
0.0
 71
     5
 72
     1
  1
\A1;%%c31.0000
  0
SOLID
  5
10858
330
10853
100
AcDbEntity
  8
GUIDES
 62
     0
100
AcDbTrace
 10
673.6922832571611
 20
691.2039606511707
 30
0.0
 11
673.6340705082632
 21
691.2184959828062
 31
0.0
 12
673.7067828776187
 22
691.385866563682
 32
0.0
 13
673.7067828776187
 23
691.385866563682
 33
0.0
  0
SOLID
  5
10859
330
10853
100
AcDbEntity
  8
GUIDES
 62
     0
100
AcDbTrace
 10
666.2113611530547
 20
661.4911855456323
 30
0.0
 11
666.2695739019525
 21
661.4766502139969
 31
0.0
 12
666.196861532597
 22
661.309279633121
 32
0.0
 13
666.196861532597
 23
661.309279633121
 33
0.0
  0
POINT
  5
1085A
330
10853
100
AcDbEntity
  8
DEFPOINTS
 62
     0
100
AcDbPoint
 10
666.196861532597
 20
661.309279633121
 30
0.0
  0
POINT
  5
1085B
330
10853
100
AcDbEntity
  8
DEFPOINTS
 62
     0
100
AcDbPoint
 10
673.7067828776187
 20
691.385866563682
 30
0.0
  0
ENDBLK
  5
10855
330
10853
100
AcDbEntity
  8
0
100
AcDbBlockEnd
  0
BLOCK
  5
10861
330
10860
100
AcDbEntity
  8
0
100
AcDbBlockBegin
  2
*D37
 70
     1
 10
0.0
 20
0.0
 30
0.0
  3
*D37
  1
*D37
  0
LINE
  5
10863
330
10860
100
AcDbEntity
  8
GUIDES
  6
BYBLOCK
 62
     0
100
AcDbLine
 10
810.0976315641406
 20
659.4691964628414
 30
0.0
 11
829.8933039049026
 21
695.1679885513308
 31
0.0
  0
MTEXT
  5
10864
330
10860
100
AcDbEntity
  8
GUIDES
  6
BYBLOCK
 62
     0
100
AcDbMText
 10
819.1905961545654
 20
707.2886615759231
 30
0.0
 40
8.0
 41
0.0
 71
     5
 72
     1
  1
\A1;%%c41.0000
  0
SOLID
  5
10865
330
10860
100
AcDbEntity
  8
GUIDES
 62
     0
100
AcDbTrace
 10
829.8322490969977
 20
694.9960225359914
 30
0.0
 11
829.7797765951527
 21
695.0251195556007
 31
0.0
 12
829.8933039049026
 22
695.1679885513308
 32
0.0
 13
829.8933039049026
 23
695.1679885513308
 33
0.0
  0
SOLID
  5
10866
330
10860
100
AcDbEntity
  8
GUIDES
 62
     0
100
AcDbTrace
 10
810.0713953132181
 20
659.483744972646
 30
0.0
 11
810.123867815063
 21
659.4546479530368
 31
0.0
 12
810.0103405053131
 22
659.3117789573066
 32
0.0
 13
810.0103405053131
 23
659.3117789573066
 33
0.0
  0
POINT
  5
10867
330
10860
100
AcDbEntity
  8
DEFPOINTS
 62
     0
100
AcDbPoint
 10
810.0103405053131
 20
659.3117789573066
 30
0.0
  0
POINT
  5
10868
330
10860
100
AcDbEntity
  8
DEFPOINTS
 62
     0
100
AcDbPoint
 10
829.8933039049026
 20
695.1679885513308
 30
0.0
  0
ENDBLK
  5
10862
330
10860
100
AcDbEntity
  8
0
100
AcDbBlockEnd
  0
BLOCK
  5
1086D
330
1086C
100
AcDbEntity
  8
0
100
AcDbBlockBegin
  2
*D38
 70
     1
 10
0.0
 20
0.0
 30
0.0
  3
*D38
  1
*D38
  0
LINE
  5
1086F
330
1086C
100
AcDbEntity
  8
GUIDES
  6
BYBLOCK
 62
     0
100
AcDbLine
 10
961.4867100516757
 20
662.3472225064273
 30
0.0
 11
978.5102995661147
 21
690.4069766044926
 31
0.0
  0
MTEXT
  5
10870
330
1086C
100
AcDbEntity
  8
GUIDES
  6
BYBLOCK
 62
     0
100
AcDbMText
 10
969.448587022141
 20
708.0672003887086
 30
0.0
 40
8.0
 41
0.0
 71
     5
 72
     1
  1
\A1;%%c33.0000
  0
SOLID
  5
10871
330
1086C
100
AcDbEntity
  8
GUIDES
 62
     0
100
AcDbTrace
 10
978.4425831282823
 20
690.2375231181097
 30
0.0
 11
978.3912855887978
 21
690.268644853968
 31
0.0
 12
978.5102995661147
 22
690.4069766044926
 32
0.0
 13
978.5102995661147
 23
690.4069766044926
 33
0.0
  0
SOLID
  5
10872
330
1086C
100
AcDbEntity
  8
GUIDES
 62
     0
100
AcDbTrace
 10
961.4610612819334
 20
662.3627833743565
 30
0.0
 11
961.5123588214179
 21
662.3316616384982
 31
0.0
 12
961.3933448441011
 22
662.1933298879736
 32
0.0
 13
961.3933448441011
 23
662.1933298879736
 33
0.0
  0
POINT
  5
10873
330
1086C
100
AcDbEntity
  8
DEFPOINTS
 62
     0
100
AcDbPoint
 10
961.3933448441011
 20
662.1933298879736
 30
0.0
  0
POINT
  5
10874
330
1086C
100
AcDbEntity
  8
DEFPOINTS
 62
     0
100
AcDbPoint
 10
978.5102995661147
 20
690.4069766044926
 30
0.0
  0
ENDBLK
  5
1086E
330
1086C
100
AcDbEntity
  8
0
100
AcDbBlockEnd
  0
ENDSEC
  0
SECTION
  2
ENTITIES
  0
LINE
  5
1049C
330
1F
100
AcDbEntity
  8
2NDCUT
  6
BYBLOCK
100
AcDbLine
 10
744.9518222051079
 20
70.30339420941453
 30
0.0
 11
744.9518222051079
 21
-79.69660579058547
 31
0.0
  0
LINE
  5
1049D
330
1F
100
AcDbEntity
  8
2NDCUT
  6
BYBLOCK
100
AcDbLine
 10
894.9518222051079
 20
70.30339420941453
 30
0.0
 11
894.9518222051079
 21
-79.69660579058547
 31
0.0
  0
CIRCLE
  5
104A8
330
1F
100
AcDbEntity
  8
FIRST_CUT
  6
BYBLOCK
100
AcDbCircle
 10
1039.951822205108
 20
65.30339420941453
 30
0.0
 40
1.5
  0
CIRCLE
  5
104A9
330
1F
100
AcDbEntity
  8
FIRST_CUT
  6
BYBLOCK
100
AcDbCircle
 10
899.9518222051079
 20
65.30339420941453
 30
0.0
 40
1.5
  0
CIRCLE
  5
104AA
330
1F
100
AcDbEntity
  8
FIRST_CUT
  6
BYBLOCK
100
AcDbCircle
 10
889.9518222051079
 20
65.30339420941453
 30
0.0
 40
1.5
  0
CIRCLE
  5
104AB
330
1F
100
AcDbEntity
  8
FIRST_CUT
  6
BYBLOCK
100
AcDbCircle
 10
739.9518222051079
 20
65.30339420941453
 30
0.0
 40
1.5
  0
CIRCLE
  5
104AC
330
1F
100
AcDbEntity
  8
FIRST_CUT
  6
BYBLOCK
100
AcDbCircle
 10
749.9518222051079
 20
65.30339420941453
 30
0.0
 40
1.5
  0
CIRCLE
  5
104AD
330
1F
100
AcDbEntity
  8
FIRST_CUT
  6
BYBLOCK
100
AcDbCircle
 10
599.9518222051079
 20
65.30339420941453
 30
0.0
 40
1.5
  0
CIRCLE
  5
104AE
330
1F
100
AcDbEntity
  8
FIRST_CUT
  6
BYBLOCK
100
AcDbCircle
 10
599.9518222051079
 20
-74.69660579058547
 30
0.0
 40
1.5
  0
CIRCLE
  5
104AF
330
1F
100
AcDbEntity
  8
FIRST_CUT
  6
BYBLOCK
100
AcDbCircle
 10
739.9518222051079
 20
-74.69660579058547
 30
0.0
 40
1.5
  0
CIRCLE
  5
104B0
330
1F
100
AcDbEntity
  8
FIRST_CUT
  6
BYBLOCK
100
AcDbCircle
 10
750.1202609449208
 20
-74.69660579058547
 30
0.0
 40
1.5
  0
CIRCLE
  5
104B1
330
1F
100
AcDbEntity
  8
FIRST_CUT
  6
BYBLOCK
100
AcDbCircle
 10
889.9518222051079
 20
-74.69660579058547
 30
0.0
 40
1.5
  0
CIRCLE
  5
104B2
330
1F
100
AcDbEntity
  8
FIRST_CUT
  6
BYBLOCK
100
AcDbCircle
 10
899.9518222051079
 20
-74.69660579058547
 30
0.0
 40
1.5
  0
CIRCLE
  5
104B3
330
1F
100
AcDbEntity
  8
FIRST_CUT
  6
BYBLOCK
100
AcDbCircle
 10
1039.951822205108
 20
-74.69660579058547
 30
0.0
 40
1.5
  0
CIRCLE
  5
104BC
102
{ACAD_REACTORS
102
}
330
1F
100
AcDbEntity
  8
FIRST_CUT
  6
BYBLOCK
100
AcDbCircle
 10
669.9518222051079
 20
-4.696605790585465
 30
0.0
 40
30.0
  0
ARC
  5
104BE
102
{ACAD_REACTORS
102
}
330
1F
100
AcDbEntity
  8
FIRST_CUT
  6
BYBLOCK
100
AcDbCircle
 10
819.9518222051079
 20
-3.75687528249972
 30
0.0
 40
33.0
100
AcDbArc
 50
276.4015498944758
 51
265.9674968567846
  0
ARC
  5
104BF
102
{ACAD_REACTORS
102
}
330
1F
100
AcDbEntity
  8
FIRST_CUT
  6
BYBLOCK
100
AcDbCircle
 10
969.9518222051079
 20
-4.696605790585465
 30
0.0
 40
28.0
100
AcDbArc
 50
277.5048407517828
 51
265.2001198855314
  0
LWPOLYLINE
  5
104CC
330
1F
100
AcDbEntity
  8
FIRST_CUT
  6
BYBLOCK
100
AcDbPolyline
 90
        4
 70
     0
 43
0.0
 10
817.6311840784819
 20
-36.6751777704053
 10
817.6311840784819
 20
-44.58595988670029
 10
823.6311840784819
 20
-44.58595988670029
 10
823.6311840784819
 20
-36.55111709725679
  0
LWPOLYLINE
  5
104CD
330
1F
100
AcDbEntity
  8
FIRST_CUT
  6
BYBLOCK
100
AcDbPolyline
 90
        4
 70
     0
 43
0.0
 10
967.6089009734578
 20
-32.59841075195462
 10
967.6089009734578
 20
-44.74988162392012
 10
973.6089009734578
 20
-44.74988162392012
 10
973.6089009734578
 20
-32.45675303230743
  0
DIMENSION
  5
104D7
102
{ACAD_REACTORS
102
}
102
{ACAD_XDICTIONARY
360
104D8
102
}
330
1F
100
AcDbEntity
  8
GUIDES
  6
BYBLOCK
100
AcDbDimension
  2
*D13
 10
693.7918252201124
 20
-22.90798290063881
 30
0.0
 11
667.8383587784278
 21
40.694010403042
 31
0.0
 70
   163
  1
<>
  3
ISO-25
100
AcDbDiametricDimension
 15
646.1118191901033
 25
13.51477131946785
 35
0.0
 40
0.0
1001
ACAD
1000
DSTYLE
1002
{
1070
   287
1070
     5
1070
   171
1070
     2
1070
   143
1040
25.4
1070
   274
1070
     2
1070
    41
1040
0.18
1070
   141
1040
0.09
1070
   271
1070
     4
1070
    43
1040
0.38
1070
    44
1040
0.18
1070
    42
1040
0.0625
1070
   147
1040
0.09
1070
    77
1070
     0
1070
   272
1070
     4
1070
    73
1070
     1
1070
   279
1070
     2
1070
   172
1070
     0
1070
    74
1070
     1
1070
   283
1070
     1
1070
   140
1040
8.0
1070
   284
1070
     0
1070
    78
1070
     0
1002
}
1001
ACAD_DSTYLE_DIMRADIAL_EXTE
1070
   387
1070
     1
1070
   388
1040
0.0
1070
   390
1040
6.283185307179586
  0
DIMENSION
  5
104E3
102
{ACAD_REACTORS
102
}
102
{ACAD_XDICTIONARY
360
104E4
102
}
330
1F
100
AcDbEntity
  8
GUIDES
  6
BYBLOCK
100
AcDbDimension
  2
*D14
 10
849.7024537192345
 20
-18.03622836695888
 30
0.0
 11
817.4637868606185
 21
43.12694419299635
 31
0.0
 70
   163
  1
<>
  3
ISO-25
100
AcDbDiametricDimension
 15
790.2011906909812
 25
10.52247780195944
 35
0.0
 40
0.0
1001
ACAD
1000
DSTYLE
1002
{
1070
   287
1070
     5
1070
   171
1070
     2
1070
   143
1040
25.4
1070
   274
1070
     2
1070
    41
1040
0.18
1070
   141
1040
0.09
1070
   271
1070
     4
1070
    43
1040
0.38
1070
    44
1040
0.18
1070
    42
1040
0.0625
1070
   147
1040
0.09
1070
    77
1070
     0
1070
   272
1070
     4
1070
    73
1070
     1
1070
   279
1070
     2
1070
   172
1070
     0
1070
    74
1070
     1
1070
   283
1070
     1
1070
   140
1040
8.0
1070
   284
1070
     0
1070
    78
1070
     0
1002
}
1001
ACAD_DSTYLE_DIMRADIAL_EXTE
1070
   387
1070
     1
1070
   388
1040
4.824117103273988
1070
   390
1040
4.642008523438562
  0
DIMENSION
  5
104EF
102
{ACAD_REACTORS
102
}
102
{ACAD_XDICTIONARY
360
104F0
102
}
330
1F
100
AcDbEntity
  8
GUIDES
  6
BYBLOCK
100
AcDbDimension
  2
*D15
 10
996.6947456471
 20
-12.99214952054965
 30
0.0
 11
970.7386156277405
 21
39.47754350806491
 31
0.0
 70
   163
  1
<>
  3
ISO-25
100
AcDbDiametricDimension
 15
943.2088987631157
 25
3.598937939378715
 35
0.0
 40
0.0
1001
ACAD
1000
DSTYLE
1002
{
1070
   287
1070
     5
1070
   171
1070
     2
1070
   143
1040
25.4
1070
   274
1070
     2
1070
    41
1040
0.18
1070
   141
1040
0.09
1070
   271
1070
     4
1070
    43
1040
0.38
1070
    44
1040
0.18
1070
    42
1040
0.0625
1070
   147
1040
0.09
1070
    77
1070
     0
1070
   272
1070
     4
1070
    73
1070
     1
1070
   279
1070
     2
1070
   172
1070
     0
1070
    74
1070
     1
1070
   283
1070
     1
1070
   140
1040
8.0
1070
   284
1070
     0
1070
    78
1070
     0
1002
}
1001
ACAD_DSTYLE_DIMRADIAL_EXTE
1070
   387
1070
     1
1070
   388
1040
4.843373161341147
1070
   390
1040
4.628615268686211
  0
CIRCLE
  5
10558
330
1F
100
AcDbEntity
  8
FIRST_CUT
  6
BYBLOCK
100
AcDbCircle
 10
1194.951822205108
 20
410.3033942094146
 30
0.0
 40
2.5
  0
LWPOLYLINE
  5
1055F
330
1F
100
AcDbEntity
  8
FIRST_CUT
  6
BYBLOCK
100
AcDbPolyline
 90
        4
 70
     1
 43
0.0
 10
1109.863191684814
 20
355.3190348894664
 10
1109.863191684814
 20
115.3190348894663
 10
1279.863191684814
 20
115.3190348894663
 10
1279.863191684814
 20
355.3190348894664
  0
CIRCLE
  5
10567
330
1F
100
AcDbEntity
  8
FIRST_CUT
  6
BYBLOCK
100
AcDbCircle
 10
1004.951822205108
 20
80.30339420941453
 30
0.0
 40
2.5
  0
CIRCLE
  5
10568
330
1F
100
AcDbEntity
  8
FIRST_CUT
  6
BYBLOCK
100
AcDbCircle
 10
1384.951822205108
 20
80.30339420941453
 30
0.0
 40
2.5
  0
CIRCLE
  5
10569
330
1F
100
AcDbEntity
  8
FIRST_CUT
  6
BYBLOCK
100
AcDbCircle
 10
1384.951822205108
 20
460.3033942094146
 30
0.0
 40
2.5
  0
CIRCLE
  5
1056A
330
1F
100
AcDbEntity
  8
FIRST_CUT
  6
BYBLOCK
100
AcDbCircle
 10
1004.951822205108
 20
460.3033942094146
 30
0.0
 40
2.5
  0
CIRCLE
  5
1057D
330
1F
100
AcDbEntity
  8
FIRST_CUT
  6
BYBLOCK
100
AcDbCircle
 10
604.9518222051079
 20
80.30339420941453
 30
0.0
 40
2.5
  0
CIRCLE
  5
1057E
330
1F
100
AcDbEntity
  8
FIRST_CUT
  6
BYBLOCK
100
AcDbCircle
 10
984.9518222051079
 20
80.30339420941453
 30
0.0
 40
2.5
  0
CIRCLE
  5
1057F
330
1F
100
AcDbEntity
  8
FIRST_CUT
  6
BYBLOCK
100
AcDbCircle
 10
984.9518222051079
 20
460.3033942094146
 30
0.0
 40
2.5
  0
CIRCLE
  5
10580
330
1F
100
AcDbEntity
  8
FIRST_CUT
  6
BYBLOCK
100
AcDbCircle
 10
604.9518222051079
 20
460.3033942094146
 30
0.0
 40
2.5
  0
CIRCLE
  5
10643
330
1F
100
AcDbEntity
  8
FIRST_CUT
  6
BYBLOCK
100
AcDbCircle
 10
1054.863191684814
 20
175.3346755695181
 30
0.0
 40
2.5
  0
CIRCLE
  5
10644
330
1F
100
AcDbEntity
  8
FIRST_CUT
  6
BYBLOCK
100
AcDbCircle
 10
1334.863191684814
 20
175.3346755695181
 30
0.0
 40
2.5
  0
CIRCLE
  5
1064A
102
{ACAD_REACTORS
102
}
330
1F
100
AcDbEntity
  8
FIRST_CUT
  6
BYBLOCK
100
AcDbCircle
 10
1194.863191684814
 20
-79.69660579058547
 30
0.0
 40
55.0
  0
DIMENSION
  5
1064B
102
{ACAD_REACTORS
102
}
102
{ACAD_XDICTIONARY
360
1064C
102
}
330
1F
100
AcDbEntity
  8
GUIDES
  6
BYBLOCK
100
AcDbDimension
  2
*D28
 10
1245.993331967168
 20
-99.96255641489165
 30
0.0
 11
1176.517939995675
 21
-62.70243254061376
 31
0.0
 70
   163
  1
<>
  3
ISO-25
100
AcDbDiametricDimension
 15
1143.73305140246
 25
-59.43065516627928
 35
0.0
 40
0.0
1001
ACAD
1000
DSTYLE
1002
{
1070
   287
1070
     5
1070
   171
1070
     2
1070
   143
1040
25.4
1070
   274
1070
     2
1070
    41
1040
0.18
1070
   141
1040
0.09
1070
   271
1070
     4
1070
    43
1040
0.38
1070
    44
1040
0.18
1070
    42
1040
0.0625
1070
   147
1040
0.09
1070
    77
1070
     0
1070
   272
1070
     4
1070
    73
1070
     1
1070
   279
1070
     2
1070
   172
1070
     0
1070
    74
1070
     1
1070
   283
1070
     1
1070
   140
1040
8.0
1070
   284
1070
     0
1070
    78
1070
     0
1002
}
1001
ACAD_DSTYLE_DIMRADIAL_EXTE
1070
   387
1070
     1
1070
   388
1040
0.0
1070
   390
1040
6.283185307179586
  0
CIRCLE
  5
1064E
330
1F
100
AcDbEntity
  8
FIRST_CUT
  6
BYBLOCK
100
AcDbCircle
 10
1194.863191684814
 20
60.30339420941453
 30
0.0
 40
2.5
  0
CIRCLE
  5
1064F
330
1F
100
AcDbEntity
  8
FIRST_CUT
  6
BYBLOCK
100
AcDbCircle
 10
1264.777232288036
 20
-9.669941542881986
 30
0.0
 40
1.5
  0
CIRCLE
  5
10650
330
1F
100
AcDbEntity
  8
FIRST_CUT
  6
BYBLOCK
100
AcDbCircle
 10
1124.777232288036
 20
-9.669941542881986
 30
0.0
 40
1.5
  0
CIRCLE
  5
10651
330
1F
100
AcDbEntity
  8
FIRST_CUT
  6
BYBLOCK
100
AcDbCircle
 10
1124.777232288036
 20
-149.669941542882
 30
0.0
 40
1.5
  0
CIRCLE
  5
10652
330
1F
100
AcDbEntity
  8
FIRST_CUT
  6
BYBLOCK
100
AcDbCircle
 10
1264.777232288036
 20
-149.669941542882
 30
0.0
 40
1.5
  0
LINE
  5
10653
330
1F
100
AcDbEntity
  8
0
  6
BYBLOCK
100
AcDbLine
 10
1044.863191684814
 20
-184.6966057905855
 30
0.0
 11
1344.863191684814
 21
-184.6966057905855
 31
0.0
  0
CIRCLE
  5
10656
330
1F
100
AcDbEntity
  8
FIRST_CUT
  6
BYBLOCK
100
AcDbCircle
 10
1054.863191684814
 20
-174.6809651105337
 30
0.0
 40
2.5
  0
CIRCLE
  5
10657
330
1F
100
AcDbEntity
  8
FIRST_CUT
  6
BYBLOCK
100
AcDbCircle
 10
1334.863191684814
 20
-174.6809651105337
 30
0.0
 40
2.5
  0
LWPOLYLINE
  5
10658
330
1F
100
AcDbEntity
  8
2NDCUT
  6
BYBLOCK
100
AcDbPolyline
 90
        2
 70
     0
 43
0.0
 10
1344.863191684814
 20
-184.6966057905854
 10
1344.863191684814
 20
70.30339420941453
  0
LWPOLYLINE
  5
10659
330
1F
100
AcDbEntity
  8
2NDCUT
  6
BYBLOCK
100
AcDbPolyline
 90
        2
 70
     0
 43
0.0
 10
1044.863191684814
 20
70.30339420941453
 10
1044.863191684814
 20
-79.69660579058547
  0
CIRCLE
  5
10664
330
1F
100
AcDbEntity
  8
FIRST_CUT
  6
BYBLOCK
100
AcDbCircle
 10
1494.951822205108
 20
60.28775352936276
 30
0.0
 40
2.5
  0
LINE
  5
1066E
102
{ACAD_REACTORS
102
}
330
1F
100
AcDbEntity
  8
0
  6
BYBLOCK
100
AcDbLine
 10
1344.863191684814
 20
-184.6966057905855
 30
0.0
 11
1644.863191684814
 21
-184.6966057905855
 31
0.0
  0
CIRCLE
  5
1066F
330
1F
100
AcDbEntity
  8
FIRST_CUT
  6
BYBLOCK
100
AcDbCircle
 10
1354.951822205108
 20
-174.6966057905855
 30
0.0
 40
2.5
  0
CIRCLE
  5
10670
330
1F
100
AcDbEntity
  8
FIRST_CUT
  6
BYBLOCK
100
AcDbCircle
 10
1634.951822205108
 20
-174.6966057905855
 30
0.0
 40
2.5
  0
LWPOLYLINE
  5
10673
102
{ACAD_REACTORS
102
}
330
1F
100
AcDbEntity
  8
0
  6
BYBLOCK
100
AcDbPolyline
 90
        2
 70
     0
 43
0.0
 10
1644.863191684814
 20
-184.6966057905854
 10
1644.863191684814
 20
70.30339420941453
  0
TEXT
  5
1067F
330
1F
100
AcDbEntity
  8
GUIDES
  6
BYBLOCK
100
AcDbText
 10
714.3063969735233
 20
283.7816948263714
 30
0.0
 40
10.0
  1
Level 0
100
AcDbText
  0
TEXT
  5
10680
330
1F
100
AcDbEntity
  8
GUIDES
  6
BYBLOCK
100
AcDbText
 10
1163.938221205646
 20
240.1350051893053
 30
0.0
 40
10.0
  1
Level 1
100
AcDbText
  0
TEXT
  5
10681
330
1F
100
AcDbEntity
  8
GUIDES
  6
BYBLOCK
100
AcDbText
 10
1490.195534849375
 20
-131.2596699673825
 30
0.0
 40
10.0
  1
Level 2
100
AcDbText
  0
TEXT
  5
10682
330
1F
100
AcDbEntity
  8
GUIDES
  6
BYBLOCK
100
AcDbText
 10
1166.544121382229
 20
15.39115745118988
 30
0.0
 40
10.0
  1
Level 3
100
AcDbText
  0
TEXT
  5
10683
330
1F
100
AcDbEntity
  8
GUIDES
  6
BYBLOCK
100
AcDbText
 10
631.2986875922816
 20
-52.73098866753077
 30
0.0
 40
10.0
  1
Level 5
100
AcDbText
  0
TEXT
  5
10684
330
1F
100
AcDbEntity
  8
GUIDES
  6
BYBLOCK
100
AcDbText
 10
789.9259706973025
 20
-63.43589734332971
 30
0.0
 40
10.0
  1
Level 6
100
AcDbText
  0
TEXT
  5
10685
330
1F
100
AcDbEntity
  8
GUIDES
  6
BYBLOCK
100
AcDbText
 10
930.0629569986706
 20
-61.48955031136626
 30
0.0
 40
10.0
  1
Level 7
100
AcDbText
  0
CIRCLE
  5
106A0
330
1F
100
AcDbEntity
  8
FIRST_CUT
  6
BYBLOCK
100
AcDbCircle
 10
795.0404527254016
 20
410.3033942094146
 30
0.0
 40
2.5
  0
CIRCLE
  5
106A2
330
1F
100
AcDbEntity
  8
FIRST_CUT
  6
BYBLOCK
100
AcDbCircle
 10
654.9518222051079
 20
175.3346755695181
 30
0.0
 40
2.5
  0
CIRCLE
  5
106A3
330
1F
100
AcDbEntity
  8
FIRST_CUT
  6
BYBLOCK
100
AcDbCircle
 10
934.9518222051079
 20
175.3346755695181
 30
0.0
 40
2.5
  0
LINE
  5
106A9
330
1F
100
AcDbEntity
  8
2NDCUT
  6
BYBLOCK
100
AcDbLine
 10
994.9518222051079
 20
470.3033942094146
 30
0.0
 11
994.9518222051079
 21
70.30339420941453
 31
0.0
  0
LINE
  5
106AA
330
1F
100
AcDbEntity
  8
2NDCUT
  6
BYBLOCK
100
AcDbLine
 10
994.9518222051079
 20
70.30339420941453
 30
0.0
 11
1344.863191684814
 21
70.30339420941453
 31
0.0
  0
LINE
  5
106AB
330
1F
100
AcDbEntity
  8
0
  6
BYBLOCK
100
AcDbLine
 10
1394.951822205108
 20
70.30339420941453
 30
0.0
 11
1394.951822205108
 21
470.3033942094146
 31
0.0
  0
LINE
  5
106AC
102
{ACAD_REACTORS
102
}
330
1F
100
AcDbEntity
  8
0
  6
BYBLOCK
100
AcDbLine
 10
1394.951822205108
 20
470.3033942094146
 30
0.0
 11
994.9518222051079
 21
470.3033942094146
 31
0.0
  0
LINE
  5
106AD
330
1F
100
AcDbEntity
  8
0
  6
BYBLOCK
100
AcDbLine
 10
994.9518222051079
 20
470.3033942094146
 30
0.0
 11
594.9518222051079
 21
470.3033942094146
 31
0.0
  0
LINE
  5
106AE
330
1F
100
AcDbEntity
  8
0
  6
BYBLOCK
100
AcDbLine
 10
594.9518222051079
 20
470.3033942094146
 30
0.0
 11
594.9518222051079
 21
70.30339420941453
 31
0.0
  0
LINE
  5
106AF
330
1F
100
AcDbEntity
  8
2NDCUT
  6
BYBLOCK
100
AcDbLine
 10
594.9518222051079
 20
70.30339420941453
 30
0.0
 11
994.9518222051079
 21
70.30339420941453
 31
0.0
  0
LINE
  5
106B0
102
{ACAD_REACTORS
102
}
330
1F
100
AcDbEntity
  8
0
  6
BYBLOCK
100
AcDbLine
 10
1044.951822205108
 20
-79.69660579058547
 30
0.0
 11
594.9518222051079
 21
-79.69660579058547
 31
0.0
  0
LINE
  5
106B1
330
1F
100
AcDbEntity
  8
0
  6
BYBLOCK
100
AcDbLine
 10
594.9518222051079
 20
-79.69660579058547
 30
0.0
 11
594.9518222051079
 21
70.30339420941453
 31
0.0
  0
LINE
  5
106D1
330
1F
100
AcDbEntity
  8
0
  6
BYBLOCK
100
AcDbLine
 10
1394.951822205108
 20
70.30339420941453
 30
0.0
 11
1644.863191684814
 21
70.30339420941453
 31
0.0
  0
DIMENSION
  5
106E3
102
{ACAD_REACTORS
102
}
102
{ACAD_XDICTIONARY
360
106E4
102
}
330
1F
100
AcDbEntity
  8
GUIDES
  6
BYBLOCK
100
AcDbDimension
  2
*D33
 10
1644.863191684814
 20
-434.729340970413
 30
0.0
 11
1119.907506944961
 21
-434.729340970413
 31
0.0
 70
    32
  3
ISO-25
100
AcDbAlignedDimension
 13
594.9518222051079
 23
-79.69660579058547
 33
0.0
 14
1644.863191684814
 24
-79.69660579058547
 34
0.0
100
AcDbRotatedDimension
1001
ACAD
1000
DSTYLE
1002
{
1070
   287
1070
     5
1070
   171
1070
     2
1070
   143
1040
25.4
1070
   274
1070
     2
1070
    41
1040
0.18
1070
   141
1040
0.09
1070
   271
1070
     4
1070
    43
1040
0.38
1070
    44
1040
0.18
1070
    42
1040
0.0625
1070
   147
1040
0.09
1070
    77
1070
     0
1070
   272
1070
     4
1070
    73
1070
     1
1070
   279
1070
     2
1070
   172
1070
     0
1070
    74
1070
     1
1070
   283
1070
     1
1070
   140
1040
8.0
1070
   284
1070
     0
1070
    78
1070
     0
1002
}
  0
DIMENSION
  5
106F3
102
{ACAD_REACTORS
102
}
102
{ACAD_XDICTIONARY
360
106F4
102
}
330
1F
100
AcDbEntity
  8
GUIDES
  6
BYBLOCK
100
AcDbDimension
  2
*D34
 10
1774.612612341164
 20
470.3033942094146
 30
0.0
 11
1774.612612341164
 21
142.8033942094146
 31
0.0
 70
    32
  3
ISO-25
100
AcDbAlignedDimension
 13
1344.863191684814
 23
-184.6966057905855
 33
0.0
 14
1344.863191684814
 24
470.3033942094146
 34
0.0
 50
90.0
100
AcDbRotatedDimension
1001
ACAD
1000
DSTYLE
1002
{
1070
   287
1070
     5
1070
   171
1070
     2
1070
   143
1040
25.4
1070
   274
1070
     2
1070
    41
1040
0.18
1070
   141
1040
0.09
1070
   271
1070
     4
1070
    43
1040
0.38
1070
    44
1040
0.18
1070
    42
1040
0.0625
1070
   147
1040
0.09
1070
    77
1070
     0
1070
   272
1070
     4
1070
    73
1070
     1
1070
   279
1070
     2
1070
   172
1070
     0
1070
    74
1070
     1
1070
   283
1070
     1
1070
   140
1040
8.0
1070
   284
1070
     0
1070
    78
1070
     0
1002
}
  0
LINE
  5
107F2
330
1F
100
AcDbEntity
  8
0
  6
BYBLOCK
100
AcDbLine
 10
1344.863191684814
 20
70.30339420941453
 30
0.0
 11
1394.951822205108
 21
70.30339420941453
 31
0.0
  0
LWPOLYLINE
  5
107F3
330
1F
100
AcDbEntity
  8
0
  6
BYBLOCK
100
AcDbPolyline
 90
        2
 70
     0
 43
0.0
 10
1044.863191684814
 20
-79.69660579058547
 10
1044.863191684814
 20
-184.6966057905855
  0
LINE
  5
107F4
330
1F
100
AcDbEntity
  8
0
  6
BYBLOCK
100
AcDbLine
 10
744.9518222051079
 20
751.3001532462331
 30
0.0
 11
744.9518222051079
 21
601.3001532462331
 31
0.0
  0
LINE
  5
107F5
330
1F
100
AcDbEntity
  8
0
  6
BYBLOCK
100
AcDbLine
 10
894.9518222051079
 20
751.3001532462331
 30
0.0
 11
894.9518222051079
 21
601.3001532462331
 31
0.0
  0
CIRCLE
  5
107F6
330
1F
100
AcDbEntity
  8
FIRST_CUT
  6
BYBLOCK
100
AcDbCircle
 10
1039.951822205108
 20
746.3001532462331
 30
0.0
 40
1.5
  0
CIRCLE
  5
107F7
330
1F
100
AcDbEntity
  8
FIRST_CUT
  6
BYBLOCK
100
AcDbCircle
 10
899.9518222051079
 20
746.3001532462331
 30
0.0
 40
1.5
  0
CIRCLE
  5
107F8
330
1F
100
AcDbEntity
  8
FIRST_CUT
  6
BYBLOCK
100
AcDbCircle
 10
889.9518222051079
 20
746.3001532462331
 30
0.0
 40
1.5
  0
CIRCLE
  5
107F9
330
1F
100
AcDbEntity
  8
FIRST_CUT
  6
BYBLOCK
100
AcDbCircle
 10
739.9518222051079
 20
746.3001532462331
 30
0.0
 40
1.5
  0
CIRCLE
  5
107FA
330
1F
100
AcDbEntity
  8
FIRST_CUT
  6
BYBLOCK
100
AcDbCircle
 10
749.9518222051079
 20
746.3001532462331
 30
0.0
 40
1.5
  0
CIRCLE
  5
107FB
330
1F
100
AcDbEntity
  8
FIRST_CUT
  6
BYBLOCK
100
AcDbCircle
 10
599.9518222051079
 20
746.3001532462331
 30
0.0
 40
1.5
  0
CIRCLE
  5
107FC
330
1F
100
AcDbEntity
  8
FIRST_CUT
  6
BYBLOCK
100
AcDbCircle
 10
599.9518222051079
 20
606.3001532462331
 30
0.0
 40
1.5
  0
CIRCLE
  5
107FD
330
1F
100
AcDbEntity
  8
FIRST_CUT
  6
BYBLOCK
100
AcDbCircle
 10
739.9518222051079
 20
606.3001532462331
 30
0.0
 40
1.5
  0
CIRCLE
  5
107FE
330
1F
100
AcDbEntity
  8
FIRST_CUT
  6
BYBLOCK
100
AcDbCircle
 10
750.1202609449208
 20
606.3001532462331
 30
0.0
 40
1.5
  0
CIRCLE
  5
107FF
330
1F
100
AcDbEntity
  8
FIRST_CUT
  6
BYBLOCK
100
AcDbCircle
 10
889.9518222051079
 20
606.3001532462331
 30
0.0
 40
1.5
  0
CIRCLE
  5
10800
330
1F
100
AcDbEntity
  8
FIRST_CUT
  6
BYBLOCK
100
AcDbCircle
 10
899.9518222051079
 20
606.3001532462331
 30
0.0
 40
1.5
  0
CIRCLE
  5
10801
330
1F
100
AcDbEntity
  8
FIRST_CUT
  6
BYBLOCK
100
AcDbCircle
 10
1039.951822205108
 20
606.3001532462331
 30
0.0
 40
1.5
  0
LWPOLYLINE
  5
1080A
330
1F
100
AcDbEntity
  8
0
  6
BYBLOCK
100
AcDbPolyline
 90
        2
 70
     0
 43
0.0
 10
1044.863191684814
 20
751.3001532462331
 10
1044.863191684814
 20
601.3001532462331
  0
LINE
  5
1080B
330
1F
100
AcDbEntity
  8
0
  6
BYBLOCK
100
AcDbLine
 10
594.9518222051079
 20
751.3001532462331
 30
0.0
 11
1044.863191684814
 21
751.3001532462331
 31
0.0
  0
LINE
  5
1080C
102
{ACAD_REACTORS
102
}
330
1F
100
AcDbEntity
  8
0
  6
BYBLOCK
100
AcDbLine
 10
1044.951822205108
 20
601.3001532462331
 30
0.0
 11
594.9518222051079
 21
601.3001532462331
 31
0.0
  0
LINE
  5
1080D
330
1F
100
AcDbEntity
  8
0
  6
BYBLOCK
100
AcDbLine
 10
594.9518222051079
 20
601.3001532462331
 30
0.0
 11
594.9518222051079
 21
751.3001532462331
 31
0.0
  0
CIRCLE
  5
10841
102
{ACAD_REACTORS
102
}
330
1F
100
AcDbEntity
  8
FIRST_CUT
  6
BYBLOCK
100
AcDbCircle
 10
669.9518222051079
 20
676.3475730984015
 30
0.0
 40
15.5
  0
ARC
  5
10842
102
{ACAD_REACTORS
102
}
330
1F
100
AcDbEntity
  8
FIRST_CUT
  6
BYBLOCK
100
AcDbCircle
 10
819.9518222051079
 20
677.2398837543187
 30
0.0
 40
20.5
100
AcDbArc
 50
275.5987378162285
 51
264.4012621837715
  0
ARC
  5
10843
102
{ACAD_REACTORS
102
}
330
1F
100
AcDbEntity
  8
FIRST_CUT
  6
BYBLOCK
100
AcDbCircle
 10
969.9518222051079
 20
676.3001532462331
 30
0.0
 40
16.5
100
AcDbArc
 50
276.9620626910845
 51
263.0379373089155
  0
LINE
  5
10844
330
1F
100
AcDbEntity
  8
FIRST_CUT
  6
BYBLOCK
100
AcDbLine
 10
967.9518222051079
 20
659.9218138920738
 30
0.0
 11
967.9518222051079
 21
653.8001532462331
 31
0.0
  0
LINE
  5
10845
330
1F
100
AcDbEntity
  8
FIRST_CUT
  6
BYBLOCK
100
AcDbLine
 10
967.9518222051079
 20
653.8001532462331
 30
0.0
 11
971.9518222051079
 21
653.8001532462331
 31
0.0
  0
LINE
  5
10846
330
1F
100
AcDbEntity
  8
FIRST_CUT
  6
BYBLOCK
100
AcDbLine
 10
971.9518222051079
 20
653.8001532462331
 30
0.0
 11
971.9518222051079
 21
659.9218138920738
 31
0.0
  0
LINE
  5
10847
330
1F
100
AcDbEntity
  8
FIRST_CUT
  6
BYBLOCK
100
AcDbLine
 10
817.9518222051079
 20
656.8376779912156
 30
0.0
 11
817.9518222051079
 21
650.7398837543187
 31
0.0
  0
LINE
  5
10848
330
1F
100
AcDbEntity
  8
FIRST_CUT
  6
BYBLOCK
100
AcDbLine
 10
817.9518222051079
 20
650.7398837543187
 30
0.0
 11
821.9518222051079
 21
650.7398837543187
 31
0.0
  0
LINE
  5
10849
330
1F
100
AcDbEntity
  8
FIRST_CUT
  6
BYBLOCK
100
AcDbLine
 10
821.9518222051079
 20
650.7398837543187
 30
0.0
 11
821.9518222051079
 21
656.8376779912156
 31
0.0
  0
DIMENSION
  5
10850
102
{ACAD_REACTORS
102
}
102
{ACAD_XDICTIONARY
360
10851
102
}
330
1F
100
AcDbEntity
  8
GUIDES
  6
BYBLOCK
100
AcDbDimension
  2
*D36
 10
673.7067828776187
 20
691.385866563682
 30
0.0
 11
668.0848076614188
 21
700.4185859594849
 31
0.0
 70
   163
  1
<>
  3
ISO-25
100
AcDbDiametricDimension
 15
666.196861532597
 25
661.309279633121
 35
0.0
 40
0.0
1001
ACAD
1000
DSTYLE
1002
{
1070
   287
1070
     5
1070
   171
1070
     2
1070
   143
1040
25.4
1070
   274
1070
     2
1070
    41
1040
0.18
1070
   141
1040
0.09
1070
   271
1070
     4
1070
    43
1040
0.38
1070
    44
1040
0.18
1070
    42
1040
0.0625
1070
   147
1040
0.09
1070
    77
1070
     0
1070
   272
1070
     4
1070
    73
1070
     1
1070
   279
1070
     2
1070
   172
1070
     0
1070
    74
1070
     1
1070
   283
1070
     1
1070
   140
1040
8.0
1070
   284
1070
     0
1070
    78
1070
     0
1002
}
1001
ACAD_DSTYLE_DIMRADIAL_EXTE
1070
   387
1070
     1
1070
   388
1040
0.0
1070
   390
1040
6.283185307179586
  0
DIMENSION
  5
1085D
102
{ACAD_REACTORS
102
}
102
{ACAD_XDICTIONARY
360
1085E
102
}
330
1F
100
AcDbEntity
  8
GUIDES
  6
BYBLOCK
100
AcDbDimension
  2
*D37
 10
829.8933039049026
 20
695.1679885513308
 30
0.0
 11
819.1905961545654
 21
707.2886615759231
 31
0.0
 70
   163
  1
<>
  3
ISO-25
100
AcDbDiametricDimension
 15
810.0103405053131
 25
659.3117789573066
 35
0.0
 40
0.0
1001
ACAD
1000
DSTYLE
1002
{
1070
   287
1070
     5
1070
   171
1070
     2
1070
   143
1040
25.4
1070
   274
1070
     2
1070
    41
1040
0.18
1070
   141
1040
0.09
1070
   271
1070
     4
1070
    43
1040
0.38
1070
    44
1040
0.18
1070
    42
1040
0.0625
1070
   147
1040
0.09
1070
    77
1070
     0
1070
   272
1070
     4
1070
    73
1070
     1
1070
   279
1070
     2
1070
   172
1070
     0
1070
    74
1070
     1
1070
   283
1070
     1
1070
   140
1040
8.0
1070
   284
1070
     0
1070
    78
1070
     0
1002
}
1001
ACAD_DSTYLE_DIMRADIAL_EXTE
1070
   387
1070
     1
1070
   388
1040
4.810105389233795
1070
   390
1040
4.614672571535584
  0
DIMENSION
  5
10869
102
{ACAD_REACTORS
102
}
102
{ACAD_XDICTIONARY
360
1086A
102
}
330
1F
100
AcDbEntity
  8
GUIDES
  6
BYBLOCK
100
AcDbDimension
  2
*D38
 10
978.5102995661147
 20
690.4069766044926
 30
0.0
 11
969.448587022141
 21
708.0672003887086
 31
0.0
 70
   163
  1
<>
  3
ISO-25
100
AcDbDiametricDimension
 15
961.3933448441011
 25
662.1933298879736
 35
0.0
 40
0.0
1001
ACAD
1000
DSTYLE
1002
{
1070
   287
1070
     5
1070
   171
1070
     2
1070
   143
1040
25.4
1070
   274
1070
     2
1070
    41
1040
0.18
1070
   141
1040
0.09
1070
   271
1070
     4
1070
    43
1040
0.38
1070
    44
1040
0.18
1070
    42
1040
0.0625
1070
   147
1040
0.09
1070
    77
1070
     0
1070
   272
1070
     4
1070
    73
1070
     1
1070
   279
1070
     2
1070
   172
1070
     0
1070
    74
1070
     1
1070
   283
1070
     1
1070
   140
1040
8.0
1070
   284
1070
     0
1070
    78
1070
     0
1002
}
1001
ACAD_DSTYLE_DIMRADIAL_EXTE
1070
   387
1070
     1
1070
   388
1040
4.833899897074371
1070
   390
1040
4.590878063695008
  0
ENDSEC
  0
SECTION
  2
OBJECTS
  0
DICTIONARY
  5
C
330
0
100
AcDbDictionary
  3
ACAD_DETAILVIEWSTYLE
350
1004E
  3
ACAD_GROUP
350
D
  3
ACAD_IMAGE_VARS
350
10045
  3
ACAD_MLINESTYLE
350
17
  3
ACAD_SCALELIST
350
FFFF
  3
ACAD_SECTIONVIEWSTYLE
350
1004F
  3
ACDBVARIABLEDICTIONARY
350
10049
  3
APPDATA
350
10043
  3
DWGPROPS
350
10875
  0
DICTIONARY
  5
10046
330
2
100
AcDbDictionary
280
     1
  3
ACAD_LAYERSTATES
360
10047
  3
ACLYDICTIONARY
360
106A8
  0
DICTIONARY
  5
104D8
330
104D7
100
AcDbDictionary
280
     1
  0
DICTIONARY
  5
104E4
330
104E3
100
AcDbDictionary
280
     1
  0
DICTIONARY
  5
104F0
330
104EF
100
AcDbDictionary
280
     1
  0
DICTIONARY
  5
1064C
330
1064B
100
AcDbDictionary
280
     1
  0
DICTIONARY
  5
106E4
330
106E3
100
AcDbDictionary
280
     1
  0
DICTIONARY
  5
106F4
330
106F3
100
AcDbDictionary
280
     1
  0
DICTIONARY
  5
10851
330
10850
100
AcDbDictionary
280
     1
  0
DICTIONARY
  5
1085E
330
1085D
100
AcDbDictionary
280
     1
  0
DICTIONARY
  5
1086A
330
10869
100
AcDbDictionary
280
     1
  0
DICTIONARY
  5
1004E
102
{ACAD_REACTORS
330
C
102
}
330
C
100
AcDbDictionary
  0
DICTIONARY
  5
D
330
C
100
AcDbDictionary
  0
RASTERVARIABLES
  5
10045
102
{ACAD_REACTORS
330
C
102
}
330
C
100
AcDbRasterVariables
 90
        0
 70
     1
 71
     1
 72
     0
  0
DICTIONARY
  5
17
330
C
100
AcDbDictionary
  3
STANDARD
350
1009E
  0
DICTIONARY
  5
FFFF
102
{ACAD_REACTORS
330
C
102
}
330
C
100
AcDbDictionary
  0
DICTIONARY
  5
1004F
102
{ACAD_REACTORS
330
C
102
}
330
C
100
AcDbDictionary
  0
DICTIONARY
  5
10049
102
{ACAD_REACTORS
330
C
102
}
330
C
100
AcDbDictionary
  3
HPTRANSPARENCY
350
103AD
  0
DICTIONARY
  5
10043
102
{ACAD_REACTORS
330
C
102
}
330
C
100
AcDbDictionary
  0
XRECORD
  5
10875
102
{ACAD_REACTORS
330
C
102
}
330
C
100
AcDbXrecord
  1
DWGPROPS COOKIE
  2

  3

  4

  6

  7

  8

  9

300
=
301
=
302
=
303
=
304
=
305
=
306
=
307
=
308
=
309
=
 40
0.0
 41
0.0
 42
2457051.417986111
  1

 90
        0
  0
DICTIONARY
  5
10047
102
{ACAD_REACTORS
330
10046
102
}
330
10046
100
AcDbDictionary
  0
DICTIONARY
  5
106A8
102
{ACAD_REACTORS
330
10046
102
}
330
10046
100
AcDbDictionary
1001
ACAD
1000
<All
  0
MLINESTYLE
  5
1009E
102
{ACAD_REACTORS
330
17
102
}
330
17
100
AcDbMlineStyle
  2
Standard
 70
     0
  3

 62
   256
 51
90.0
 52
90.0
 71
     2
 49
0.5
 62
   256
  6
BYLAYER
 49
-0.5
 62
   256
  6
BYLAYER
  0
DICTIONARYVAR
  5
103AD
102
{ACAD_REACTORS
330
10049
102
}
330
10049
100
DictionaryVariables
280
     0
  1
ByLayer
  0
ENDSEC
  0
EOF
